<svg width="46" height="46" viewBox="0 0 46 46" fill="none" xmlns="http://www.w3.org/2000/svg">
<g id="icon/navigation/menu_24px">
<path id="icon/navigation/menu_24px_2" fill-rule="evenodd" clip-rule="evenodd" d="M8 15.5C6.96875 15.5 6.125 14.6562 6.125 13.625C6.125 12.5938 6.96875 11.75 8 11.75H38C39.0312 11.75 39.875 12.5938 39.875 13.625C39.875 14.6562 39.0312 15.5 38 15.5H8ZM8 24.8749H38C39.0312 24.8749 39.875 24.0312 39.875 22.9999C39.875 21.9687 39.0312 21.1249 38 21.1249H8C6.96875 21.1249 6.125 21.9687 6.125 22.9999C6.125 24.0312 6.96875 24.8749 8 24.8749ZM8 34.2501H38C39.0312 34.2501 39.875 33.4063 39.875 32.3751C39.875 31.3438 39.0312 30.5001 38 30.5001H8C6.96875 30.5001 6.125 31.3438 6.125 32.3751C6.125 33.4063 6.96875 34.2501 8 34.2501Z" fill="#FFC843"/>
</g>
</svg>
