<svg width="74" height="73" viewBox="0 0 74 73" fill="none" xmlns="http://www.w3.org/2000/svg">
<g clip-path="url(#clip0)">
<path d="M71.2161 34.3789H64.853C63.6816 34.3789 62.7319 35.3286 62.7319 36.4999C62.7319 37.6713 63.6816 38.621 64.853 38.621H71.2161C72.3875 38.621 73.3371 37.6713 73.3371 36.4999C73.3371 35.3286 72.3875 34.3789 71.2161 34.3789Z" fill="black"/>
<path d="M68.4739 47.7265L64.2318 43.4844C63.4036 42.6562 62.0605 42.6562 61.2322 43.4844C60.4037 44.3126 60.4037 45.6557 61.2322 46.484L65.4743 50.7261C66.3025 51.5544 67.6457 51.5544 68.4739 50.7261C69.3022 49.8977 69.3022 48.5548 68.4739 47.7265Z" fill="black"/>
<path d="M68.4738 22.2735C67.6456 21.4453 66.3025 21.4453 65.4742 22.2735L61.2321 26.5156C60.4038 27.3439 60.4038 28.6868 61.2321 29.5151C62.0604 30.3435 63.4035 30.3433 64.2317 29.5151L68.4738 25.2731C69.3021 24.4447 69.3021 23.1018 68.4738 22.2735Z" fill="black"/>
<path d="M50.0057 8.92676C46.8198 8.92676 44.1736 11.2804 43.7137 14.3402L41.7789 16.275C38.4114 19.6425 33.4521 21.653 28.5125 21.653H15.7863C13.0211 21.653 10.6635 23.4263 9.78795 25.8951H9.42313C4.74496 25.8951 0.938965 29.7011 0.938965 34.3792C0.938965 39.0574 4.74496 42.8634 9.42313 42.8634H9.78795C10.4281 44.6683 11.8603 46.1005 13.6652 46.7407V57.7107C13.6652 61.2193 16.5198 64.0738 20.0285 64.0738C23.537 64.0738 26.3915 61.2193 26.3915 57.7107V47.1055H28.5125C33.452 47.1055 38.4113 49.116 41.7789 52.4835L43.7137 54.4183C44.1736 57.4779 46.8199 59.8317 50.0059 59.8317C53.5143 59.8317 56.3688 56.9772 56.3688 53.4686V15.2899C56.3688 11.7813 53.5143 8.92676 50.0057 8.92676ZM9.42313 38.6213C7.08404 38.6213 5.18105 36.7183 5.18105 34.3792C5.18105 32.0402 7.08404 30.1372 9.42313 30.1372V38.6213ZM22.1494 57.7107C22.1494 58.8802 21.1979 59.8317 20.0283 59.8317C18.8588 59.8317 17.9073 58.8802 17.9073 57.7107V47.1055H22.1494V57.7107ZM26.3915 42.8634H15.7863C14.6167 42.8634 13.6652 41.9119 13.6652 40.7424V28.0161C13.6652 26.8466 14.6167 25.8951 15.7863 25.8951H26.3915V42.8634ZM43.6426 48.427C40.0593 45.3258 35.4523 43.3989 30.6194 42.9596L30.6195 25.7988C35.4523 25.3596 40.0593 23.4327 43.6426 20.3313V48.427ZM52.1268 53.4686C52.1268 54.6382 51.1753 55.5897 50.0059 55.5897H50.0057C48.8362 55.5897 47.8847 54.6382 47.8847 53.4686V15.2899C47.8847 14.1203 48.8362 13.1688 50.0059 13.1688C51.1753 13.1688 52.1268 14.1203 52.1268 15.2899V53.4686Z" fill="black"/>
</g>
<defs>
<clipPath id="clip0">
<rect width="72.3982" height="72.3982" fill="white" transform="translate(0.938965 0.300781)"/>
</clipPath>
</defs>
</svg>
