<svg width="80" height="80" viewBox="0 0 80 80" fill="none" xmlns="http://www.w3.org/2000/svg">
<path d="M67.8484 11.9433C60.396 4.49102 50.4873 0.386719 39.948 0.386719C29.4086 0.386719 19.5 4.49102 12.0476 11.9433C4.59527 19.3958 0.490967 29.3044 0.490967 39.8437C0.490967 50.3831 4.59527 60.2917 12.0477 67.7442C12.6003 68.2967 13.3629 68.5094 14.0785 68.3855C14.0796 68.3856 14.0801 68.3867 14.0814 68.3866L32.7617 65.1149C33.23 65.0329 33.6615 64.8086 33.9977 64.4725L64.0402 34.4298C64.9431 33.5269 64.9431 32.0631 64.0402 31.1603L48.6294 15.7495C47.7267 14.8466 46.2628 14.8466 45.3599 15.7495L15.3172 45.7922C14.9809 46.1283 14.7567 46.5601 14.6747 47.0283L12.2373 60.9556C7.61804 54.9185 5.11484 47.5739 5.11484 39.8437C5.11484 20.6366 20.7409 5.01059 39.948 5.01059C59.1551 5.01059 74.7811 20.6366 74.7811 39.8437C74.7811 59.0508 59.1551 74.6769 39.948 74.6769C38.6712 74.6769 37.636 75.712 37.636 76.9888C37.636 78.2656 38.6712 79.3008 39.948 79.3008C50.4873 79.3008 60.396 75.1964 67.8484 67.7442C75.3007 60.2917 79.405 50.3831 79.405 39.8437C79.405 29.3044 75.3007 19.3958 67.8484 11.9433ZM18.4626 52.207L27.5833 61.3276L16.5276 63.2639L18.4626 52.207ZM32.3627 59.5681L27.9279 55.1333L54.7009 28.3604L59.1357 32.7951L32.3627 59.5681ZM46.9946 20.6539L51.4315 25.0908L24.6584 51.8638L20.2216 47.4269L46.9946 20.6539Z" fill="black"/>
</svg>
